<?xml version="1.0" ?><!DOCTYPE svg  PUBLIC '-//W3C//DTD SVG 1.1//EN'  'http://www.w3.org/Graphics/SVG/1.1/DTD/svg11.dtd'><svg height="182.000" viewBox="-21.000 -161.000 183.000 182.000" width="183.000" xmlns="http://www.w3.org/2000/svg"><polyline fill="none" points="0.0,-0.0 150.0,-0.0 150.0,-150.0 20.0,-150.0 20.0,-20.0 130.0,-20.0 130.0,-130.0 40.0,-130.0 40.0,-40.0 110.0,-40.0 110.0,-110.0 60.0,-110.0 60.0,-60.0" stroke="#000" stroke-linecap="round" stroke-linejoin="round"/><line fill="none" stroke="none" stroke-linecap="round" stroke-width="10.0" x1="0.0" x2="0.0" y1="0.0" y2="0.0"/><line fill="none" stroke="none" stroke-linecap="round" x1="0.0" x2="0.0" y1="0.0" y2="0.0"/><polygon fill="#000" fill-rule="evenodd" points="60.0,-60.0 51.0,-65.0 53.0,-60.0 51.0,-55.0" stroke="#000" stroke-linejoin="round"/><line fill="none" stroke="#00f" stroke-linecap="round" stroke-width="10.0" x1="0.0" x2="0.0" y1="-0.0" y2="-0.0"/><line fill="none" stroke="none" stroke-linecap="round" stroke-width="2.0" x1="0.0" x2="0.0" y1="0.0" y2="0.0"/><polygon fill="#000" fill-rule="evenodd" points="0.0,-0.0 -9.0,-5.0 -7.0,-0.0 -9.0,5.0" stroke="#32c18f" stroke-linejoin="round"/></svg>