<?xml version="1.0" ?><!DOCTYPE svg  PUBLIC '-//W3C//DTD SVG 1.1//EN'  'http://www.w3.org/Graphics/SVG/1.1/DTD/svg11.dtd'><svg height="531.000" viewBox="-65.000 -415.000 527.000 531.000" width="527.000" xmlns="http://www.w3.org/2000/svg"><polyline fill="none" points="0.0,-0.0 8.13473286152,-1.72909084715 14.8628965095,-6.61738787282 19.0211303259,-13.8196601125 19.8904379074,-22.0905692654 17.3205080757,-30.0 11.7557050458,-36.1803398875 4.15823381636,-39.5629520147 -4.15823381636,-39.5629520147 -11.7557050458,-36.1803398875 -17.3205080757,-30.0 -19.8904379074,-22.0905692654 -19.0211303259,-13.8196601125 -14.8628965095,-6.61738787282 -8.13473286152,-1.72909084715 -1.59872115546e-14,-1.66533453694e-14 400.0,1.83186799063e-13" stroke="#f00" stroke-linecap="round" stroke-linejoin="round"/><polyline fill="none" points="400.0,1.83186799063e-13 396.110740766,-7.35100649523 389.567801953,-12.484580843 381.502517124,-14.5130814014 373.309447297,-13.0857619957 366.405248675,-8.44941911782 361.983719924,-1.40571857124 360.809383533,6.82741982954 363.085292932,14.8264116593 368.417922711,21.2081585621 375.885212734,24.8691985221 384.19600072,25.1765044708 391.913275923,22.0769404178 397.702651353,16.1064491465 400.563091402,8.2973828379 400.0,1.97175609173e-13 290.808466961,-383.768431626" stroke="#0f0" stroke-linecap="round" stroke-linejoin="round"/><polyline fill="none" points="290.808466961,-383.768431626 284.802426722,-378.015943944 281.655383473,-370.317908307 281.91148958,-362.005385011 285.526461973,-354.51568485 291.875239082,-349.143845026 299.860059669,-346.818705444 308.100275715,-347.942303861 315.171079005,-352.320359905 319.849863414,-359.195867911 321.327624613,-367.379990082 319.348844265,-375.457617347 314.255671469,-382.032054566 306.928762071,-385.966521819 298.635005269,-386.580713973 290.808466961,-383.768431626 -47.5779530591,-174.248430801" stroke="#00f" stroke-linecap="round" stroke-linejoin="round"/><polyline fill="none" points="-47.5779530591,-174.248430801 -40.4014319641,-170.045910264 -32.1360346206,-169.125670817 -24.2109233182,-171.646830219 -17.9964217984,-177.173457106 -14.567073831,-184.749947481 -14.5158448342,-193.066257328 -17.8515927669,-200.684421124 -23.9975365072,-206.287189139 -31.8909865484,-208.905791883 -40.1670936685,-208.087449154 -47.3948437604,-203.973659843 -52.3244931711,-197.275735495 -54.1036607332,-189.151808078 -52.4247122118,-181.006578447 -47.5779530591,-174.248430801 245.808587077,93.2087397269" stroke="#f00" stroke-linecap="round" stroke-linejoin="round"/><polyline fill="none" points="245.808587077,93.2087397269 247.886730874,85.1561033731 246.509907421,76.9543967784 241.916182002,70.0217695231 234.899851474,65.5569358408 226.674103128,64.3319060366 218.66124358,66.558498893 212.246769041,71.851716277 208.539800432,79.2963128155 208.181306303,87.6050501351 211.233273546,95.3412720706 217.167989297,101.167315568 224.959287289,104.075804779 233.259981317,103.563835496 240.634805973,99.7199318583 245.808587077,93.2087397269 422.320975965,-261.27592365" stroke="#0f0" stroke-linecap="round" stroke-linejoin="round"/><polyline fill="none" points="422.320975965,-261.27592365 414.00703278,-261.071027101 406.495206682,-257.502259448 401.084360647,-251.186693038 398.71007911,-243.21634668 399.782896919,-234.969365666 404.117314128,-227.871727937 410.963870625,-223.150679534 419.138734593,-221.622532616 427.228397784,-223.551517669 433.834083942,-228.604095652 437.813609918,-235.906629931 438.478879519,-244.196445987 435.714861586,-252.040159314 429.999479932,-258.081520619 422.320975965,-261.27592365 34.0466015898,-333.856983187" stroke="#00f" stroke-linecap="round" stroke-linejoin="round"/><polyline fill="none" points="34.0466015898,-333.856983187 36.5188948961,-325.916492038 42.0071359304,-319.668064697 49.5623579589,-316.192111017 57.8781944559,-316.089654967 65.5167617439,-319.378412129 71.1572821447,-325.489726513 73.8244584385,-333.366896341 73.0571116135,-341.647887389 68.9879229069,-348.900841074 62.3204920135,-353.871655813 54.2076783064,-355.700832579 46.0522609783,-354.072090091 39.2643857748,-349.267052723 35.0177379844,-342.116555088 34.0466015898,-333.856983187 70.4003352184,58.462282273" stroke="#f00" stroke-linecap="round" stroke-linejoin="round"/><polyline fill="none" points="70.4003352184,58.462282273 77.3611280467,53.911348623 81.869097241,46.9226543509 83.144773974,38.7046081866 80.9675821492,30.6781849705 75.7139780125,24.2312261944 68.2923574465,20.4784695995 59.9859860704,20.0688008938 52.2311109562,23.0730555183 46.3686204619,28.9717705555 43.412192453,36.7450045873 43.8730201906,45.0486948322 47.6714223724,52.44705781 54.1506207537,57.6608493499 62.1903030728,59.7885575288 70.4003352184,58.462282273 436.861921374,-83.5056925385" stroke="#0f0" stroke-linecap="round" stroke-linejoin="round"/><polyline fill="none" points="436.861921374,-83.5056925385 430.579805311,-88.9553394674 422.624235619,-91.3786728659 414.370802572,-90.3566763742 407.246599724,-86.0660624701 402.48346647,-79.2487172768 400.90499182,-71.0834217118 402.784108381,-62.9820295576 407.795899828,-56.3453451166 415.073781891,-52.3209114209 423.359342642,-51.6045896175 431.219933356,-54.3202382537 437.296386487,-59.9982970093 440.538028086,-67.6569779421 440.384348871,-75.9720255418 436.861921374,-83.5056925385 200.629143914,-396.328445632" stroke="#00f" stroke-linecap="round" stroke-linejoin="round"/><polyline fill="none" points="200.629143914,-396.328445632 197.106716417,-388.794778636 196.953037202,-380.479731036 200.194678801,-372.821050103 206.271131932,-367.142991348 214.131722646,-364.427342711 222.417283397,-365.143664515 229.695165459,-369.16809821 234.706956907,-375.804782651 236.586073468,-383.906174806 235.007598818,-392.071470371 230.244465564,-398.888815564 223.120262716,-403.179429468 214.866829669,-404.20142596 206.911259977,-401.778092561 200.629143914,-396.328445632 -35.0009989107,-84.3037097658" stroke="#f00" stroke-linecap="round" stroke-linejoin="round"/><polyline fill="none" points="-35.0009989107,-84.3037097658 -26.7909667651,-82.97743451 -18.751284446,-85.105142689 -12.2720860647,-90.3189342288 -8.47368388293,-97.7172972066 -8.01285614531,-106.020987451 -10.9692841542,-113.794221483 -16.8317746485,-119.692936521 -24.5866497627,-122.697191145 -32.8930211388,-122.287522439 -40.3146417048,-118.534765844 -45.5682458416,-112.087807068 -47.7454376663,-104.061383852 -46.4697609334,-95.8433376879 -41.9617917391,-88.8546434158 -35.0009989107,-84.3037097658 328.663170557,56.5805400472" stroke="#0f0" stroke-linecap="round" stroke-linejoin="round"/><polyline fill="none" points="328.663170557,56.5805400472 327.692034162,48.3209681461 323.445386372,41.1704705109 316.657511169,36.365433143 308.50209384,34.7366906556 300.389280133,36.5658674215 293.72184924,41.5366821603 289.652660533,48.7896358453 288.885313708,57.0706268932 291.552490002,64.9477967215 297.193010403,71.059111105 304.831577691,74.3478682673 313.147414188,74.2454122175 320.702636216,70.7694585375 326.190877251,64.5210311966 328.663170557,56.5805400472 364.555562388,-330.760054532" stroke="#00f" stroke-linecap="round" stroke-linejoin="round"/><polyline fill="none" points="364.555562388,-330.760054532 356.877058422,-327.565651501 351.161676767,-321.524290195 348.397658834,-313.680576869 349.062928435,-305.390760812 353.042454411,-298.088226534 359.648140569,-293.035648551 367.737803761,-291.106663498 375.912667728,-292.634810416 382.759224225,-297.355858819 387.093641434,-304.453496548 388.166459243,-312.700477562 385.792177706,-320.67082392 380.381331671,-326.986390329 372.869505574,-330.555157983 364.555562388,-330.760054532 -16.8380002891,-259.465241619" stroke="#f00" stroke-linecap="round" stroke-linejoin="round"/><polyline fill="none" points="-16.8380002891,-259.465241619 -11.664219185,-252.954049487 -4.28939452846,-249.11014585 4.01129949908,-248.598176567 11.8025974909,-251.506665778 17.7373132424,-257.332709275 20.7892804851,-265.068931211 20.4307863563,-273.37766853 16.7238177478,-280.822265069 10.3093432088,-286.115482453 2.29648366067,-288.342075309 -5.92926468613,-287.117045505 -12.9455952139,-282.652211823 -17.5393206329,-275.719584567 -18.9161440857,-267.517877973 -16.8380002891,-259.465241619 155.662743396,86.9629521356" stroke="#0f0" stroke-linecap="round" stroke-linejoin="round"/><polyline fill="none" points="155.662743396,86.9629521356 160.509502549,80.2048044899 162.18845107,72.0595748585 160.409283508,63.9356474417 155.479634098,57.2377230936 148.251884006,53.1239337827 139.975776886,52.3055910533 132.082326844,54.9241937979 125.936383104,60.5269618126 122.600635171,68.1451256081 122.651864168,76.4614354554 126.081212136,84.0379258305 132.295713655,89.5645527173 140.220824958,92.0857121194 148.486222301,91.1654726719 155.662743396,86.9629521356 440.920185444,-173.083566312" stroke="#00f" stroke-linecap="round" stroke-linejoin="round"/><polyline fill="none" points="440.920185444,-173.083566312 433.093647136,-175.895848659 424.799890334,-175.281656505 417.472980936,-171.347189252 412.37980814,-164.772752033 410.401027792,-156.695124768 411.87878899,-148.511002596 416.5575734,-141.635494591 423.62837669,-137.257438547 431.868592736,-136.13384013 439.853413323,-138.458979712 446.202190432,-143.830819536 449.817162824,-151.320519696 450.073268932,-159.633042993 446.926225683,-167.33107863 440.920185444,-173.083566312 113.586588188,-375.75994902" stroke="#f00" stroke-linecap="round" stroke-linejoin="round"/><polyline fill="none" points="113.586588188,-375.75994902 113.023496786,-367.462566182 115.883936835,-359.653499873 121.673312264,-353.683008602 129.390587468,-350.583444549 137.701375453,-350.890750498 145.168665477,-354.551790458 150.501295255,-360.93353736 152.777204655,-368.93252919 151.602868263,-377.165667591 147.181339512,-384.209368138 140.277140891,-388.845711015 132.084071063,-390.273030421 124.018786235,-388.244529863 117.475847422,-383.110955515 113.586588188,-375.75994902 8.5,-6.41890204136" stroke="#0f0" stroke-linecap="round" stroke-linejoin="round"/><polyline fill="none" points="8.5,-6.41890204136 16.6347328615,-8.1479928885 23.3628965095,-13.0362899142 27.5211303259,-20.2385621539 28.3904379074,-28.5094713067 25.8205080757,-36.4189020414 20.2557050459,-42.5992419289 12.6582338164,-45.981854056 4.34176618365,-45.981854056 -3.25570504585,-42.5992419289 -8.82050807569,-36.4189020414 -11.3904379074,-28.5094713067 -10.5211303259,-20.2385621539 -6.36289650955,-13.0362899142 0.365267138485,-8.1479928885 8.5,-6.41890204136 391.5,-6.41890204135" stroke="#00f" stroke-linecap="round" stroke-linejoin="round"/><polyline fill="none" points="391.5,-6.41890204135 387.610740766,-13.7699085366 381.067801953,-18.9034828843 373.002517124,-20.9319834428 364.809447297,-19.504664037 357.905248675,-14.8683211592 353.483719924,-7.82462061259 352.309383533,0.408517788183 354.585292932,8.40750961794 359.917922711,14.7892565208 367.385212734,18.4502964808 375.69600072,18.7576024294 383.413275923,15.6580383764 389.202651353,9.6875471051 392.063091402,1.87848079655 391.5,-6.41890204135 286.960737792,-373.836297733" stroke="#f00" stroke-linecap="round" stroke-linejoin="round"/><polyline fill="none" points="286.960737792,-373.836297733 280.954697553,-368.083810051 277.807654304,-360.385774414 278.063760412,-352.073251118 281.678732804,-344.583550958 288.027509913,-339.211711133 296.012330501,-336.886571551 304.252546546,-338.010169969 311.323349836,-342.388226012 316.002134246,-349.263734018 317.479895444,-357.44785619 315.501115096,-365.525483454 310.4079423,-372.099920674 303.081032902,-376.034387926 294.7872761,-376.648580081 286.960737792,-373.836297733 -36.9719909205,-173.265643677" stroke="#0f0" stroke-linecap="round" stroke-linejoin="round"/><polyline fill="none" points="-36.9719909205,-173.265643677 -29.7954698255,-169.063123141 -21.530072482,-168.142883693 -13.6049611796,-170.664043095 -7.39045965981,-176.190669982 -3.96111169239,-183.767160357 -3.90988269556,-192.083470205 -7.24563062826,-199.701634 -13.3915743686,-205.304402015 -21.2850244098,-207.923004759 -29.5611315298,-207.10466203 -36.7888816217,-202.990872719 -41.7185310325,-196.292948371 -43.4976985946,-188.169020954 -41.8187500732,-180.023791323 -36.9719909205,-173.265643677 243.851397623,82.7387009086" stroke="#00f" stroke-linecap="round" stroke-linejoin="round"/><polyline fill="none" points="243.851397623,82.7387009086 245.92954142,74.6860645548 244.552717967,66.4843579601 239.958992548,59.5517307048 232.94266202,55.0868970224 224.716913674,53.8618672183 216.704054125,56.0884600747 210.289579586,61.3816774586 206.582610978,68.8262739972 206.224116849,77.1350113167 209.276084092,84.8712332523 215.210799843,90.6972767497 223.002097835,93.6057659605 231.302791863,93.0937966772 238.677616519,89.24989304 243.851397623,82.7387009086 412.786234463,-256.528186515" stroke="#f00" stroke-linecap="round" stroke-linejoin="round"/><polyline fill="none" points="412.786234463,-256.528186515 404.472291277,-256.323289966 396.96046518,-252.754522313 391.549619145,-246.438955903 389.175337608,-238.468609545 390.248155417,-230.221628532 394.582572626,-223.123990802 401.429129123,-218.402942399 409.60399309,-216.874795482 417.693656282,-218.803780534 424.299342439,-223.856358517 428.278868416,-231.158892796 428.944138017,-239.448708852 426.180120084,-247.292422179 420.464738429,-253.333783484 412.786234463,-256.528186515 41.2224027821,-325.98550425" stroke="#0f0" stroke-linecap="round" stroke-linejoin="round"/><polyline fill="none" points="41.2224027821,-325.98550425 43.6946960884,-318.0450131 49.1829371227,-311.796585759 56.7381591512,-308.320632079 65.0539956482,-308.21817603 72.6925629362,-311.506933192 78.333083337,-317.618247575 81.0002596308,-325.495417404 80.2329128058,-333.776408452 76.1637240992,-341.029362136 69.4962932058,-346.000176875 61.3834794987,-347.829353641 53.2280621706,-346.200611154 46.4401869671,-341.395573786 42.1935391767,-334.245076151 41.2224027821,-325.98550425 76.0075742998,49.4062802136" stroke="#00f" stroke-linecap="round" stroke-linejoin="round"/><polyline fill="none" points="76.0075742998,49.4062802136 82.9683671282,44.8553465636 87.4763363225,37.8666522915 88.7520130554,29.6486061272 86.5748212307,21.6221829111 81.3212170939,15.175224135 73.8995965279,11.4224675401 65.5932251518,11.0127988344 57.8383500376,14.0170534589 51.9758595433,19.915768496 49.0194315344,27.6890025279 49.480259272,35.9926927728 53.2786614538,43.3910557506 59.7578598351,48.6048472905 67.7975421542,50.7325554694 76.0075742998,49.4062802136 426.617132556,-86.4205862728" stroke="#f00" stroke-linecap="round" stroke-linejoin="round"/><polyline fill="none" points="426.617132556,-86.4205862728 420.335016492,-91.8702332017 412.3794468,-94.2935666002 404.126013753,-93.2715701084 397.001810906,-88.9809562044 392.238677651,-82.163611011 390.660203001,-73.998315446 392.539319562,-65.8969232918 397.55111101,-59.2602388508 404.828993072,-55.2358051552 413.114553824,-54.5194833518 420.975144537,-57.2351319879 427.051597668,-62.9131907436 430.293239267,-70.5718716764 430.139560052,-78.886919276 426.617132556,-86.4205862728 200.629143914,-385.677046503" stroke="#0f0" stroke-linecap="round" stroke-linejoin="round"/><polyline fill="none" points="200.629143914,-385.677046503 197.106716417,-378.143379506 196.953037202,-369.828331906 200.194678801,-362.169650974 206.271131932,-356.491592218 214.131722646,-353.775943582 222.417283397,-354.492265385 229.695165459,-358.516699081 234.706956907,-365.153383522 236.586073468,-373.254775676 235.007598818,-381.420071241 230.244465564,-388.237416434 223.120262716,-392.528030338 214.866829669,-393.55002683 206.911259977,-391.126693432 200.629143914,-385.677046503 -24.7562100922,-87.2186035001" stroke="#00f" stroke-linecap="round" stroke-linejoin="round"/><polyline fill="none" points="-24.7562100922,-87.2186035001 -16.5461779466,-85.8923282443 -8.50649562758,-88.0200364232 -2.02729724627,-93.2338279631 1.77110493552,-100.632190941 2.23193267314,-108.935881186 -0.724495335731,-116.709115218 -6.58698583005,-122.607830255 -14.3418609443,-125.612084879 -22.6482323204,-125.202416174 -30.0698528864,-121.449659579 -35.3234570231,-115.002700803 -37.5006488478,-106.976277586 -36.2249721149,-98.7582314221 -31.7170029206,-91.76953715 -24.7562100922,-87.2186035001 323.055931476,47.5245379877" stroke="#f00" stroke-linecap="round" stroke-linejoin="round"/><polyline fill="none" points="323.055931476,47.5245379877 322.084795081,39.2649660867 317.838147291,32.1144684515 311.050272087,27.3094310836 302.894854759,25.6806885962 294.782041052,27.5098653621 288.114610159,32.4806801009 284.045421452,39.7336337859 283.278074627,48.0146248338 285.945250921,55.8917946621 291.585771322,62.0031090456 299.22433861,65.2918662079 307.540175106,65.1894101581 315.095397135,61.7134564781 320.583638169,55.4650291372 323.055931476,47.5245379877 357.379761196,-322.888575594" stroke="#0f0" stroke-linecap="round" stroke-linejoin="round"/><polyline fill="none" points="357.379761196,-322.888575594 349.701257229,-319.694172563 343.985875575,-313.652811258 341.221857642,-305.809097931 341.887127243,-297.519281875 345.866653219,-290.216747596 352.472339377,-285.164169613 360.562002568,-283.235184561 368.736866536,-284.763331478 375.583423033,-289.484379881 379.917840242,-296.582017611 380.990658051,-304.828998624 378.616376514,-312.799344982 373.205530479,-319.114911392 365.693704381,-322.683679045 357.379761196,-322.888575594 -7.30325878678,-254.717504484" stroke="#00f" stroke-linecap="round" stroke-linejoin="round"/><polyline fill="none" points="-7.30325878678,-254.717504484 -2.12947768263,-248.206312353 5.24534697387,-244.362408715 13.5460410014,-243.850439432 21.3373389932,-246.758928643 27.2720547447,-252.58497214 30.3240219874,-260.321194076 29.9655278586,-268.629931395 26.2585592502,-276.074527934 19.8440847111,-281.367745318 11.831225163,-283.594338174 3.60547681619,-282.36930837 -3.41085371155,-277.904474688 -8.00457913062,-270.971847433 -9.38140258337,-262.770140838 -7.30325878678,-254.717504484 157.619932851,76.4929133173" stroke="#f00" stroke-linecap="round" stroke-linejoin="round"/><polyline fill="none" points="157.619932851,76.4929133173 162.466692003,69.7347656716 164.145640525,61.5895360401 162.366472963,53.4656086234 157.436823552,46.7676842753 150.20907346,42.6538949644 141.93296634,41.835552235 134.039516299,44.4541549796 127.893572558,50.0569229942 124.557824626,57.6750867898 124.609053622,65.991396637 128.03840159,73.5678870121 134.25290311,79.094513899 142.178014412,81.615673301 150.443411755,80.6954338536 157.619932851,76.4929133173 430.314223305,-172.100779188" stroke="#0f0" stroke-linecap="round" stroke-linejoin="round"/><polyline fill="none" points="430.314223305,-172.100779188 422.487684997,-174.913061535 414.193928195,-174.298869381 406.867018798,-170.364402128 401.773846001,-163.789964909 399.795065653,-155.712337645 401.272826852,-147.528215473 405.951611261,-140.652707467 413.022414551,-136.274651424 421.262630597,-135.151053006 429.247451184,-137.476192588 435.596228293,-142.848032413 439.211200686,-150.337732573 439.467306793,-158.650255869 436.320263544,-166.348291506 430.314223305,-172.100779188 117.434317356,-365.827815127" stroke="#00f" stroke-linecap="round" stroke-linejoin="round"/><polyline fill="none" points="117.434317356,-365.827815127 116.871225954,-357.530432289 119.731666003,-349.721365981 125.521041433,-343.750874709 133.238316637,-340.651310656 141.549104622,-340.958616605 149.016394646,-344.619656565 154.349024424,-351.001403468 156.624933823,-359.000395298 155.450597432,-367.233533698 151.029068681,-374.277234245 144.12487006,-378.913577123 135.931800232,-380.340896529 127.866515403,-378.31239597 121.323576591,-373.178821622 117.434317356,-365.827815127 17.0,-12.8378040827" stroke="#f00" stroke-linecap="round" stroke-linejoin="round"/><polyline fill="none" points="17.0,-12.8378040827 25.1347328615,-14.5668949299 31.8628965095,-19.4551919555 36.0211303259,-26.6574641952 36.8904379074,-34.9283733481 34.3205080757,-42.8378040827 28.7557050459,-49.0181439702 21.1582338164,-52.4007560974 12.8417661836,-52.4007560974 5.24429495415,-49.0181439702 -0.320508075686,-42.8378040827 -2.89043790736,-34.9283733481 -2.0211303259,-26.6574641952 2.13710349045,-19.4551919555 8.86526713849,-14.5668949299 17.0,-12.8378040827 383.0,-12.8378040827" stroke="#0f0" stroke-linecap="round" stroke-linejoin="round"/><polyline fill="none" points="383.0,-12.8378040827 379.110740766,-20.1888105779 372.567801953,-25.3223849257 364.502517124,-27.3508854841 356.309447297,-25.9235660784 349.405248675,-21.2872232005 344.983719924,-14.2435226539 343.809383533,-6.01038425317 346.085292932,1.98860757659 351.417922711,8.37035447941 358.885212734,12.0313944394 367.19600072,12.3387003881 374.913275923,9.23913633505 380.702651353,3.26864506375 383.563091402,-4.5404212448 383.0,-12.8378040827 283.113008624,-363.904163841" stroke="#00f" stroke-linecap="round" stroke-linejoin="round"/><polyline fill="none" points="283.113008624,-363.904163841 277.106968385,-358.151676159 273.959925135,-350.453640521 274.216031243,-342.141117225 277.831003635,-334.651417065 284.179780745,-329.27957724 292.164601332,-326.954437658 300.404817378,-328.078036076 307.475620668,-332.45609212 312.154405077,-339.331600125 313.632166276,-347.515722297 311.653385927,-355.593349562 306.560213131,-362.167786781 299.233303733,-366.102254034 290.939546932,-366.716446188 283.113008624,-363.904163841 -26.3660287819,-172.282856553" stroke="#f00" stroke-linecap="round" stroke-linejoin="round"/><polyline fill="none" points="-26.3660287819,-172.282856553 -19.1895076868,-168.080336017 -10.9241103434,-167.16009657 -2.99899904096,-169.681255972 3.21550247882,-175.207882859 6.64485044624,-182.784373234 6.69607944307,-191.100683081 3.36033151038,-198.718846877 -2.78561222997,-204.321614891 -10.6790622711,-206.940217636 -18.9551693912,-206.121874906 -26.1829194831,-202.008085595 -31.1125688939,-195.310161247 -32.8917364559,-187.186233831 -31.2127879346,-179.041004199 -26.3660287819,-172.282856553 241.894208169,72.2686620903" stroke="#0f0" stroke-linecap="round" stroke-linejoin="round"/><polyline fill="none" points="241.894208169,72.2686620903 243.972351966,64.2160257365 242.595528513,56.0143191417 238.001803094,49.0816918865 230.985472566,44.6168582041 222.759724219,43.3918284 214.746864671,45.6184212563 208.332390132,50.9116386403 204.625421524,58.3562351789 204.266927395,66.6649724984 207.318894638,74.4011944339 213.253610389,80.2272379314 221.044908381,83.1357271422 229.345602409,82.6237578589 236.720427065,78.7798542217 241.894208169,72.2686620903 403.25149296,-251.78044938" stroke="#00f" stroke-linecap="round" stroke-linejoin="round"/><polyline fill="none" points="403.25149296,-251.78044938 394.937549775,-251.575552831 387.425723677,-248.006785178 382.014877642,-241.691218769 379.640596106,-233.72087241 380.713413915,-225.473891397 385.047831124,-218.376253667 391.894387621,-213.655205264 400.069251588,-212.127058347 408.158914779,-214.0560434 414.764600937,-219.108621382 418.744126913,-226.411155661 419.409396514,-234.700971717 416.645378582,-242.544685044 410.929996927,-248.58604635 403.25149296,-251.78044938 48.3982039744,-318.114025312" stroke="#f00" stroke-linecap="round" stroke-linejoin="round"/><polyline fill="none" points="48.3982039744,-318.114025312 50.8704972807,-310.173534163 56.358738315,-303.925106822 63.9139603435,-300.449153142 72.2297968405,-300.346697092 79.8683641285,-303.635454254 85.5088845293,-309.746768638 88.1760608231,-317.623938466 87.4087139981,-325.904929514 83.3395252915,-333.157883199 76.6720943981,-338.128697938 68.559280691,-339.957874704 60.4038633629,-338.329132216 53.6159881594,-333.524094848 49.3693403691,-326.373597213 48.3982039744,-318.114025312 81.6148133812,40.3502781542" stroke="#0f0" stroke-linecap="round" stroke-linejoin="round"/><polyline fill="none" points="81.6148133812,40.3502781542 88.5756062096,35.7993445042 93.0835754039,28.8106502321 94.3592521368,20.5926040678 92.1820603121,12.5661808516 86.9284561754,6.11922207556 79.5068356094,2.36646548069 71.2004642333,1.95679677501 63.445589119,4.96105139944 57.5830986247,10.8597664366 54.6266706158,18.6330004685 55.0874983535,26.9366907133 58.8859005353,34.3350536911 65.3650989166,39.548845231 73.4047812356,41.67655341 81.6148133812,40.3502781542 416.372343737,-89.335480007" stroke="#00f" stroke-linecap="round" stroke-linejoin="round"/><polyline fill="none" points="416.372343737,-89.335480007 410.090227674,-94.7851269359 402.134657982,-97.2084603344 393.881224935,-96.1864638426 386.757022087,-91.8958499386 381.993888833,-85.0785047453 380.415414183,-76.9132091802 382.294530744,-68.8118170261 387.306322191,-62.175132585 394.584204254,-58.1506988894 402.869765005,-57.434377086 410.730355719,-60.1500257222 416.80680885,-65.8280844778 420.048450449,-73.4867654106 419.894771234,-81.8018130103 416.372343737,-89.335480007 200.629143914,-375.025647373" stroke="#f00" stroke-linecap="round" stroke-linejoin="round"/><polyline fill="none" points="200.629143914,-375.025647373 197.106716417,-367.491980377 196.953037202,-359.176932777 200.194678801,-351.518251844 206.271131932,-345.840193088 214.131722646,-343.124544452 222.417283397,-343.840866256 229.695165459,-347.865299951 234.706956907,-354.501984392 236.586073468,-362.603376547 235.007598818,-370.768672112 230.244465564,-377.586017305 223.120262716,-381.876631209 214.866829669,-382.898627701 206.911259977,-380.475294302 200.629143914,-375.025647373 -14.5114212738,-90.1334972343" stroke="#0f0" stroke-linecap="round" stroke-linejoin="round"/><polyline fill="none" points="-14.5114212738,-90.1334972343 -6.30138912818,-88.8072219785 1.73829319087,-90.9349301574 8.21749157218,-96.1487216973 12.015893754,-103.547084675 12.4767214916,-111.85077492 9.52029348272,-119.624008952 3.6578029884,-125.522723989 -4.09707212584,-128.526978613 -12.4034435019,-128.117309908 -19.8250640679,-124.364553313 -25.0786682047,-117.917594537 -27.2558600294,-109.891171321 -25.9801832965,-101.673125156 -21.4722141022,-94.6844308843 -14.5114212738,-90.1334972343 317.448692394,38.4685359283" stroke="#00f" stroke-linecap="round" stroke-linejoin="round"/><polyline fill="none" points="317.448692394,38.4685359283 316.477556,30.2089640273 312.230908209,23.0584663921 305.443033006,18.2534290241 297.287615678,16.6246865368 289.174801971,18.4538633027 282.507371077,23.4246780415 278.438182371,30.6776317264 277.670835546,38.9586227744 280.338011839,46.8357926027 285.97853224,52.9471069862 293.617099528,56.2358641484 301.932936025,56.1334080987 309.488158054,52.6574544187 314.976399088,46.4090270777 317.448692394,38.4685359283 350.203960004,-315.017096656" stroke="#f00" stroke-linecap="round" stroke-linejoin="round"/><polyline fill="none" points="350.203960004,-315.017096656 342.525456037,-311.822693626 336.810074382,-305.78133232 334.04605645,-297.937618993 334.711326051,-289.647802937 338.690852027,-282.345268659 345.296538185,-277.292690676 353.386201376,-275.363705623 361.561065343,-276.891852541 368.40762184,-281.612900943 372.742039049,-288.710538673 373.814856858,-296.957519686 371.440575322,-304.927866045 366.029729287,-311.243432454 358.517903189,-314.812200108 350.203960004,-315.017096656 2.23148271554,-249.969767349" stroke="#0f0" stroke-linecap="round" stroke-linejoin="round"/><polyline fill="none" points="2.23148271554,-249.969767349 7.4052638197,-243.458575218 14.7800884762,-239.614671581 23.0807825037,-239.102702297 30.8720804955,-242.011191508 36.8067962471,-247.837235006 39.8587634897,-255.573456941 39.500269361,-263.882194261 35.7933007525,-271.326790799 29.3788262134,-276.620008183 21.3659666653,-278.84660104 13.1402183185,-277.621571235 6.12388779078,-273.156737553 1.53016237171,-266.224110298 0.153338918954,-258.022403703 2.23148271554,-249.969767349 159.577122305,66.022874499" stroke="#00f" stroke-linecap="round" stroke-linejoin="round"/><polyline fill="none" points="159.577122305,66.022874499 164.423881457,59.2647268532 166.102829979,51.1194972218 164.323662417,42.9955698051 159.394013006,36.297645457 152.166262914,32.183856146 143.890155794,31.3655134167 135.996705753,33.9841161612 129.850762012,39.5868841759 126.51501408,47.2050479714 126.566243077,55.5213578187 129.995591044,63.0978481938 136.210092564,68.6244750807 144.135203866,71.1456344827 152.40060121,70.2253950353 159.577122305,66.022874499 419.708261166,-171.117992065" stroke="#f00" stroke-linecap="round" stroke-linejoin="round"/><polyline fill="none" points="419.708261166,-171.117992065 411.881722858,-173.930274412 403.587966057,-173.316082257 396.261056659,-169.381615005 391.167883863,-162.807177785 389.189103515,-154.729550521 390.666864713,-146.545428349 395.345649122,-139.669920343 402.416452412,-135.2918643 410.656668458,-134.168265882 418.641489045,-136.493405464 424.990266155,-141.865245289 428.605238547,-149.354945449 428.861344655,-157.667468745 425.714301405,-165.365504382 419.708261166,-171.117992065 121.282046525,-355.895681235" stroke="#0f0" stroke-linecap="round" stroke-linejoin="round"/><polyline fill="none" points="121.282046525,-355.895681235 120.718955123,-347.598298397 123.579395172,-339.789232088 129.368770602,-333.818740817 137.086045805,-330.719176764 145.396833791,-331.026482712 152.864123814,-334.687522672 158.196753593,-341.069269575 160.472662992,-349.068261405 159.298326601,-357.301399806 154.87679785,-364.345100352 147.972599229,-368.98144323 139.779529401,-370.408762636 131.714244572,-368.380262078 125.17130576,-363.24668773 121.282046525,-355.895681235 25.5,-19.2567061241" stroke="#00f" stroke-linecap="round" stroke-linejoin="round"/><polyline fill="none" points="25.5,-19.2567061241 33.6347328615,-20.9857969712 40.3628965095,-25.8740939969 44.5211303259,-33.0763662366 45.3904379074,-41.3472753894 42.8205080757,-49.2567061241 37.2557050459,-55.4370460116 29.6582338164,-58.8196581387 21.3417661836,-58.8196581387 13.7442949542,-55.4370460116 8.17949192431,-49.2567061241 5.60956209264,-41.3472753894 6.4788696741,-33.0763662366 10.6371034905,-25.8740939969 17.3652671385,-20.9857969712 25.5,-19.2567061241 374.5,-19.2567061241" stroke="#f00" stroke-linecap="round" stroke-linejoin="round"/><polyline fill="none" points="374.5,-19.2567061241 370.610740766,-26.6077126193 364.067801953,-31.741286967 356.002517124,-33.7697875255 347.809447297,-32.3424681197 340.905248675,-27.7061252419 336.483719924,-20.6624246953 335.309383533,-12.4292862945 337.585292932,-4.43029446476 342.917922711,1.95145243805 350.385212734,5.61249239808 358.69600072,5.91979834673 366.413275923,2.82023429369 372.202651353,-3.15025697761 375.063091402,-10.9593232862 374.5,-19.2567061241 279.265279455,-353.972029948" stroke="#0f0" stroke-linecap="round" stroke-linejoin="round"/><polyline fill="none" points="279.265279455,-353.972029948 273.259239216,-348.219542266 270.112195966,-340.521506629 270.368302074,-332.208983333 273.983274466,-324.719283173 280.332051576,-319.347443348 288.316872163,-317.022303766 296.557088209,-318.145902184 303.627891499,-322.523958227 308.306675908,-329.399466233 309.784437107,-337.583588405 307.805656758,-345.661215669 302.712483962,-352.235652888 295.385574564,-356.170120141 287.091817763,-356.784312295 279.265279455,-353.972029948 -15.7600666433,-171.30006943" stroke="#00f" stroke-linecap="round" stroke-linejoin="round"/><polyline fill="none" points="-15.7600666433,-171.30006943 -8.58354554819,-167.097548893 -0.318148204729,-166.177309446 7.60696309767,-168.698468848 13.8214646175,-174.225095735 17.2508125849,-181.80158611 17.3020415817,-190.117895957 13.966293649,-197.736059753 7.82034990866,-203.338827768 -0.073100132491,-205.957430512 -8.34920725258,-205.139087783 -15.5769573445,-201.025298472 -20.5066067552,-194.327374124 -22.2857743173,-186.203446707 -20.6068257959,-178.058217076 -15.7600666433,-171.30006943 239.937018715,61.7986232719" stroke="#f00" stroke-linecap="round" stroke-linejoin="round"/><polyline fill="none" points="239.937018715,61.7986232719 242.015162512,53.7459869181 240.638339059,45.5442803234 236.04461364,38.6116530682 229.028283112,34.1468193858 220.802534765,32.9217895817 212.789675217,35.148382438 206.375200678,40.441599822 202.66823207,47.8861963605 202.309737941,56.1949336801 205.361705184,63.9311556156 211.296420935,69.7571991131 219.087718927,72.6656883238 227.388412954,72.1537190405 234.763237611,68.3098154034 239.937018715,61.7986232719 393.716751458,-247.032712246" stroke="#0f0" stroke-linecap="round" stroke-linejoin="round"/><polyline fill="none" points="393.716751458,-247.032712246 385.402808273,-246.827815697 377.890982175,-243.259048043 372.48013614,-236.943481634 370.105854603,-228.973135276 371.178672412,-220.726154262 375.513089621,-213.628516532 382.359646118,-208.90746813 390.534510086,-207.379321212 398.624173277,-209.308306265 405.229859435,-214.360884248 409.209385411,-221.663418526 409.874655012,-229.953234582 407.110637079,-237.796947909 401.395255425,-243.838309215 393.716751458,-247.032712246 55.5740051667,-310.242546374" stroke="#00f" stroke-linecap="round" stroke-linejoin="round"/><polyline fill="none" points="55.5740051667,-310.242546374 58.046298473,-302.302055225 63.5345395073,-296.053627884 71.0897615358,-292.577674204 79.4055980328,-292.475218154 87.0441653208,-295.763975317 92.6846857216,-301.8752897 95.3518620154,-309.752459528 94.5845151904,-318.033450576 90.5153264838,-325.286404261 83.8478955904,-330.257219 75.7350818833,-332.086395766 67.5796645552,-330.457653279 60.7917893517,-325.652615911 56.5451415614,-318.502118276 55.5740051667,-310.242546374 87.2220524626,31.2942760947" stroke="#f00" stroke-linecap="round" stroke-linejoin="round"/><polyline fill="none" points="87.2220524626,31.2942760947 94.182845291,26.7433424448 98.6908144853,19.7546481727 99.9664912182,11.5366020083 97.7892993935,3.51017879222 92.5356952568,-2.93677998386 85.1140746908,-6.68953657873 76.8077033147,-7.09920528441 69.0528282005,-4.09495065998 63.1903377061,1.80376437721 60.2339096973,9.57699840908 60.6947374349,17.8806886539 64.4931396167,25.2790516317 70.972337998,30.4928431716 79.012020317,32.6205513505 87.2220524626,31.2942760947 406.127554919,-92.2503737412" stroke="#0f0" stroke-linecap="round" stroke-linejoin="round"/><polyline fill="none" points="406.127554919,-92.2503737412 399.845438855,-97.7000206701 391.889869163,-100.123354069 383.636436117,-99.1013575769 376.512233269,-94.8107436728 371.749100014,-87.9933984795 370.170625364,-79.8281029145 372.049741925,-71.7267107603 377.061533373,-65.0900263193 384.339415436,-61.0655926237 392.624976187,-60.3492708202 400.4855669,-63.0649194564 406.562020031,-68.7429782121 409.80366163,-76.4016591448 409.649982415,-84.7167067445 406.127554919,-92.2503737412 200.629143914,-364.374248244" stroke="#00f" stroke-linecap="round" stroke-linejoin="round"/><line fill="none" stroke="none" stroke-linecap="round" x1="0.0" x2="0.0" y1="0.0" y2="0.0"/><polygon fill="#000" fill-rule="evenodd" points="200.629143914,-364.374248244 210.042941777,-368.543230107 204.847586368,-369.960368835 202.062769505,-374.569576471" stroke="#00f" stroke-linejoin="round"/></svg>