<?xml version="1.0" ?><!DOCTYPE svg  PUBLIC '-//W3C//DTD SVG 1.1//EN'  'http://www.w3.org/Graphics/SVG/1.1/DTD/svg11.dtd'><svg height="470.000" viewBox="-177.000 -373.000 445.000 470.000" width="445.000" xmlns="http://www.w3.org/2000/svg"><polyline fill="none" points="0.0,-0.0 150.0,-0.0 256.066017178,-106.066017178 256.066017178,-256.066017178 150.0,-362.132034356 8.52651282912e-14,-362.132034356 -106.066017178,-256.066017178 -106.066017178,-106.066017178 -8.52651282912e-14,-5.68434188608e-14" stroke="#ff0" stroke-linecap="round" stroke-linejoin="round"/><polyline fill="none" points="-20.0,20.0 130.0,20.0 236.066017178,-86.066017178 236.066017178,-236.066017178 130.0,-342.132034356 -20.0,-342.132034356 -126.066017178,-236.066017178 -126.066017178,-86.066017178 -20.0,20.0" stroke="#f00" stroke-linecap="round" stroke-linejoin="round"/><polyline fill="none" points="-40.0,40.0 110.0,40.0 216.066017178,-66.066017178 216.066017178,-216.066017178 110.0,-322.132034356 -40.0,-322.132034356 -146.066017178,-216.066017178 -146.066017178,-66.066017178 -40.0,40.0" stroke="#a020f0" stroke-linecap="round" stroke-linejoin="round"/><polyline fill="none" points="-60.0,60.0 90.0,60.0 196.066017178,-46.066017178 196.066017178,-196.066017178 90.0,-302.132034356 -60.0,-302.132034356 -166.066017178,-196.066017178 -166.066017178,-46.066017178 -60.0,60.0" stroke="#00f" stroke-linecap="round" stroke-linejoin="round"/><line fill="none" stroke="none" stroke-linecap="round" x1="0.0" x2="0.0" y1="0.0" y2="0.0"/><line fill="none" stroke="none" stroke-linecap="round" stroke-width="2.0" x1="0.0" x2="0.0" y1="0.0" y2="0.0"/><polygon fill="#00f" fill-rule="evenodd" points="-80.0,80.0 -89.0,75.0 -87.0,80.0 -89.0,85.0" stroke="#00f" stroke-linejoin="round"/></svg>